<svg xmlns="http://www.w3.org/2000/svg" x="0px" y="0px"
width="48" height="48"
viewBox="0 0 172 172"
style=" fill:#000000;"><g fill="none" fill-rule="nonzero" stroke="none" stroke-width="1" stroke-linecap="butt" stroke-linejoin="miter" stroke-miterlimit="10" stroke-dasharray="" stroke-dashoffset="0" font-family="none" font-weight="none" font-size="none" text-anchor="none" style="mix-blend-mode: normal"><path d="M0,172v-172h172v172z" fill="none"></path><g><path d="M86,17.91667c-37.60139,0 -68.08333,30.48195 -68.08333,68.08333c0,37.60139 30.48195,68.08333 68.08333,68.08333c37.60139,0 68.08333,-30.48195 68.08333,-68.08333c0,-37.60139 -30.48195,-68.08333 -68.08333,-68.08333z" fill="#37474f"></path><path d="M89.81267,90.18175l8.63225,22.68608c1.9565,2.65525 4.28208,4.97725 7.05558,6.55033c8.66808,4.91992 19.70833,2.08192 24.65692,-6.33892v0c-0.00358,0 -39.35575,-22.14142 -40.34475,-22.8975z" fill="#ff7043"></path><path d="M89.81267,90.18175c1.15742,0.46225 40.34475,22.89392 40.34475,22.89392v0c4.945,-8.42442 1.92783,-19.23892 -6.74383,-24.15883c-2.7735,-1.57308 -5.98058,-2.39008 -9.29875,-2.7305z" fill="#f16461"></path><path d="M120.013,95.11958c-1.04275,-0.59125 -2.16792,-1.0965 -3.32892,-1.55875c0.37267,3.55825 -0.30458,7.25267 -2.26467,10.58875c-1.96008,3.33608 -4.87333,5.75842 -8.19508,7.22042c0.989,0.75608 1.99592,1.462 3.03867,2.05325c10.86108,6.16333 17.92025,4.7085 20.89083,-0.344v0v0c2.97058,-5.05608 0.72025,-11.79633 -10.14083,-17.95967z" fill="#ff5252"></path><path d="M99.12933,104.39683c2.11058,2.54417 4.50067,4.988 7.09858,6.96958c3.32175,-1.462 6.23858,-3.88433 8.19508,-7.22042c1.96008,-3.33608 2.63733,-7.0305 2.26467,-10.58875c-3.04583,-1.21833 -6.39625,-2.03175 -9.68933,-2.55492c0.15767,2.65525 -0.43,5.38575 -1.88125,7.86183c-1.45842,2.47608 -3.569,4.343 -5.98775,5.53267z" fill="#ff855f"></path><path d="M106.22792,111.37c-2.59792,-1.98158 -4.988,-4.429 -7.09858,-6.96958c-1.50858,0.74175 -3.139,1.18967 -4.81242,1.376c1.13592,2.44742 2.50117,4.88408 4.13158,7.095c2.68392,0.06092 5.33917,-0.43 7.77942,-1.50142z" fill="#ff8a65"></path><path d="M106.99475,91.00592c3.29667,0.52675 6.64708,1.33658 9.68933,2.55492c-0.27233,-2.61583 -1.16817,-5.117 -2.56925,-7.3745c-2.76275,-0.28308 -5.59,-0.22217 -8.31333,0.03225c0.67008,1.51933 1.0965,3.13183 1.19325,4.78733z" fill="#ff8a80"></path><path d="M105.1135,98.86417c1.45483,-2.47608 2.0425,-5.203 1.88125,-7.86183c-8.858,-1.41183 -17.18208,-0.82058 -17.18208,-0.82058c0,0 3.64067,7.38167 9.31667,14.21508c2.41875,-1.18967 4.52933,-3.05658 5.98417,-5.53267z" fill="#ffccbc"></path><path d="M99.12933,104.39683c-5.676,-6.83342 -9.31667,-14.21508 -9.31667,-14.21508c-0.20783,0.35117 -0.28308,0.77758 -0.1935,1.21117c0.54825,2.65883 1.97083,8.52475 4.69417,14.3835c1.67342,-0.18992 3.30742,-0.63425 4.816,-1.37958z" fill="#ffab91"></path><path d="M105.8015,86.21858c-6.52525,0.60917 -12.40192,2.33275 -15.01775,3.19633c-0.42642,0.13975 -0.76325,0.41925 -0.9675,0.77042c0,0 8.32408,-0.59125 17.18208,0.82058c-0.10033,-1.6555 -0.52675,-3.268 -1.19683,-4.78733z" fill="#ffcdd2"></path><g><path d="M82.13717,90.18175c-0.989,0.75608 -40.34117,22.89392 -40.34117,22.89392v0c4.94858,8.42083 15.98525,11.25883 24.65692,6.33892c2.7735,-1.57308 5.09908,-3.89508 7.05558,-6.55033z" fill="#c6cf47"></path><path d="M82.13717,90.18175l-24.30217,-3.99542c-3.31817,0.33683 -6.52883,1.15742 -9.29875,2.7305c-8.66808,4.91992 -11.68883,15.73442 -6.74383,24.15883v0c0.00358,0 39.18733,-22.42808 40.34475,-22.89392z" fill="#e1eb8a"></path><path d="M62.68683,113.42325c1.04275,-0.59125 2.04967,-1.30075 3.03867,-2.05325c-3.32175,-1.462 -6.23858,-3.88433 -8.19508,-7.22042c-1.96008,-3.33608 -2.63733,-7.0305 -2.26467,-10.58875c-1.15742,0.46225 -2.28617,0.9675 -3.32892,1.55875c-10.86108,6.16333 -13.10783,12.9 -10.14083,17.95608v0v0c2.97058,5.05608 10.02975,6.51092 20.89083,0.34758z" fill="#dce775"></path><path d="M64.95508,91.00592c-3.29667,0.52675 -6.64708,1.33658 -9.68933,2.55492c-0.37267,3.55825 0.30458,7.25267 2.26467,10.58875c1.96008,3.33608 4.87333,5.75842 8.19508,7.22042c2.59792,-1.98158 4.988,-4.429 7.09858,-6.96958c-2.41875,-1.19325 -4.52933,-3.05658 -5.98417,-5.53267c-1.45483,-2.47967 -2.0425,-5.20658 -1.88483,-7.86183z" fill="#fff59d"></path><path d="M55.26575,93.56083c3.04583,-1.21833 6.39625,-2.03175 9.68933,-2.55492c0.10033,-1.6555 0.52317,-3.268 1.19325,-4.78733c-2.72333,-0.25442 -5.55417,-0.31175 -8.31333,-0.03225c-1.40108,2.2575 -2.29692,4.76225 -2.56925,7.3745z" fill="#e6ee9c"></path><path d="M72.82408,104.39683c-2.11058,2.54417 -4.50067,4.988 -7.09858,6.96958c2.44025,1.075 5.0955,1.56592 7.783,1.50142c1.63042,-2.21092 2.99208,-4.64758 4.13158,-7.095c-1.677,-0.18633 -3.30742,-0.63067 -4.816,-1.376z" fill="#ffd740"></path><path d="M66.83992,98.86417c1.45483,2.47608 3.56542,4.33942 5.98417,5.53267c5.676,-6.83342 9.31667,-14.21508 9.31667,-14.21508c0,0 -8.32408,-0.59125 -17.18208,0.82058c-0.16125,2.65883 0.42642,5.38575 1.88125,7.86183z" fill="#fff9c4"></path><path d="M64.95508,91.00592c8.858,-1.41183 17.18208,-0.82058 17.18208,-0.82058c-0.20783,-0.35117 -0.54108,-0.63067 -0.9675,-0.77042c-2.61942,-0.86358 -8.49608,-2.58358 -15.01775,-3.19633c-0.67367,1.51933 -1.0965,3.13183 -1.19683,4.78733z" fill="#f0f4c3"></path><path d="M77.6365,105.77283c2.72333,-5.85875 4.14592,-11.72108 4.69417,-14.3835c0.08958,-0.43358 0.01433,-0.86 -0.1935,-1.21117c0,0 -3.64067,7.38167 -9.31667,14.21508c1.51217,0.74892 3.14258,1.19325 4.816,1.37958z" fill="#ffe082"></path></g><g><path d="M148.2425,102.67683c-1.47275,5.50758 -3.63708,10.72492 -6.4285,15.54808l6.20275,3.57975c3.10317,-5.36067 5.504,-11.15133 7.14158,-17.27525z" fill="#f44336"></path><path d="M40.39133,131.60867l-5.06683,5.06683c4.41108,4.41108 9.43492,8.19508 14.87083,11.34125l3.57975,-6.20275c-4.89125,-2.83083 -9.41342,-6.235 -13.38375,-10.20533z" fill="#ffd740"></path><path d="M21.5,86h-7.16667c0,6.42133 0.9245,12.60975 2.50833,18.533l6.91583,-1.85258c-1.42617,-5.332 -2.2575,-10.90408 -2.2575,-16.68042z" fill="#aed581"></path><path d="M30.186,118.22492l-6.20275,3.57975c3.14617,5.43592 6.93017,10.45617 11.34125,14.87083l5.06683,-5.06683c-3.97033,-3.97033 -7.3745,-8.4925 -10.20533,-13.38375z" fill="#fff176"></path><path d="M23.7575,102.67683l-6.91583,1.85617c1.63758,6.12033 4.042,11.91458 7.14158,17.27525l6.20275,-3.57975c-2.79142,-4.82675 -4.95575,-10.0405 -6.4285,-15.55167z" fill="#dce775"></path><path d="M53.77508,141.814l-3.57975,6.20275c5.36067,3.09958 11.15133,5.504 17.27525,7.14158l1.85258,-6.91583c-5.51117,-1.47275 -10.72492,-3.63708 -15.54808,-6.4285z" fill="#ffca28"></path><path d="M118.22492,141.814l3.57975,6.20275c5.43592,-3.14617 10.45975,-6.93017 14.87083,-11.34125l-5.06683,-5.06683c-3.97033,3.97033 -8.4925,7.3745 -13.38375,10.20533z" fill="#ff7043"></path><path d="M102.67683,148.2425l1.85258,6.91583c6.12033,-1.63758 11.91458,-4.042 17.27525,-7.14158l-3.57975,-6.20275c-4.82317,2.79142 -10.03692,4.95575 -15.54808,6.4285z" fill="#fb8c00"></path><path d="M131.60867,131.60867l5.06683,5.06683c4.41108,-4.41108 8.19508,-9.43492 11.34125,-14.87083l-6.20275,-3.57975c-2.83083,4.89125 -6.235,9.41342 -10.20533,13.38375z" fill="#ff5252"></path><path d="M69.32317,148.2425l-1.85258,6.91583c5.91967,1.58383 12.10808,2.50833 18.52942,2.50833v-7.16667c-5.77633,0 -11.34842,-0.83133 -16.67683,-2.2575z" fill="#ffb74d"></path><path d="M86,150.5v7.16667c6.42133,0 12.60975,-0.9245 18.533,-2.50833l-1.85258,-6.91583c-5.332,1.42617 -10.90408,2.2575 -16.68042,2.2575z" fill="#ffa726"></path><path d="M69.32317,23.7575l-1.85617,-6.91583c-6.12033,1.63758 -11.91458,4.042 -17.27525,7.14158l3.57975,6.20275c4.82675,-2.79142 10.0405,-4.95575 15.55167,-6.4285z" fill="#64b5f6"></path><path d="M148.2425,69.32317l6.91583,-1.85258c-1.63758,-6.12033 -4.042,-11.91458 -7.14158,-17.27525l-6.20275,3.57975c2.79142,4.82317 4.95575,10.03692 6.4285,15.54808z" fill="#9575cd"></path><path d="M141.814,53.77508l6.20275,-3.57975c-3.14617,-5.43592 -6.93017,-10.45975 -11.34125,-14.87083l-5.06683,5.06683c3.97033,3.97033 7.3745,8.4925 10.20533,13.38375z" fill="#7986cb"></path><path d="M131.60867,40.39133l5.06683,-5.06683c-4.41108,-4.41108 -9.43492,-8.19508 -14.87083,-11.34125l-3.57975,6.20275c4.89125,2.83083 9.41342,6.235 13.38375,10.20533z" fill="#8c9eff"></path><path d="M118.22492,30.186l3.57975,-6.20275c-5.35708,-3.10317 -11.15133,-5.50758 -17.27167,-7.14158l-1.85258,6.91583c5.50758,1.47275 10.72133,3.63708 15.5445,6.4285z" fill="#82b1ff"></path><path d="M150.5,86h7.16667c0,-6.42133 -0.9245,-12.60975 -2.50833,-18.533l-6.91583,1.85258c1.42617,5.332 2.2575,10.90408 2.2575,16.68042z" fill="#f06292"></path><path d="M23.7575,69.32317l-6.91583,-1.85617c-1.58383,5.92325 -2.50833,12.11167 -2.50833,18.533h7.16667c0,-5.77633 0.83133,-11.34842 2.2575,-16.67683z" fill="#9ccc65"></path><path d="M148.2425,102.67683l6.91583,1.85258c1.58383,-5.91967 2.50833,-12.10808 2.50833,-18.52942h-7.16667c0,5.77633 -0.83133,11.34842 -2.2575,16.67683z" fill="#ef5350"></path><path d="M102.67683,23.7575l1.85258,-6.91583c-5.91967,-1.58383 -12.10808,-2.50833 -18.52942,-2.50833v7.16667c5.77633,0 11.34842,0.83133 16.67683,2.2575z" fill="#64b5f6"></path><path d="M40.39133,40.39133l-5.06683,-5.06683c-4.41108,4.41108 -8.19508,9.43492 -11.34125,14.87083l6.20275,3.57975c2.83083,-4.89125 6.235,-9.41342 10.20533,-13.38375z" fill="#68c1b8"></path><path d="M30.186,53.77508l-6.20275,-3.57975c-3.10317,5.35708 -5.50758,11.15133 -7.14158,17.27167l6.91583,1.85258c1.47275,-5.50758 3.63708,-10.72133 6.4285,-15.5445z" fill="#81c784"></path><path d="M53.77508,30.186l-3.57975,-6.20275c-5.43592,3.14617 -10.45975,6.93017 -14.87083,11.34125l5.06683,5.06683c3.97033,-3.97033 8.4925,-7.3745 13.38375,-10.20533z" fill="#4db6ac"></path><path d="M86,21.5v-7.16667c-6.42133,0 -12.60975,0.9245 -18.533,2.50833l1.85258,6.91583c5.332,-1.42617 10.90408,-2.2575 16.68042,-2.2575z" fill="#4ba9f5"></path></g><g><path d="M86.00358,39.41667v0l-0.00358,46.58333c0.41208,0 0.82417,-0.1505 1.161,-0.44792c3.97392,-3.50808 16.75567,-15.7595 16.75567,-28.00733c0,-10.01183 -8.0195,-18.1245 -17.91308,-18.12808z" fill="#7986cb"></path><path d="M86,39.41667c-0.00358,0 -0.00358,0 0,0c-9.89358,0 -17.91667,8.11625 -17.91667,18.12808c0,12.24783 12.78175,24.49925 16.75567,28.00733c0.33683,0.29742 0.74892,0.44792 1.161,0.44792z" fill="#26a69a"></path><path d="M86,39.41667v0v0c-5.94117,0 -10.75,5.375 -10.75,17.91667c0,12.86417 10.75,28.66667 10.75,28.66667c0,0 10.75,-15.8025 10.75,-28.66667c0,-12.54167 -4.81242,-17.91667 -10.75,-17.91667z" fill="#82b1ff"></path><path d="M86,39.41667c1.94575,0 3.37192,0.32967 3.57258,0.37625c6.18483,1.40825 10.76075,6.33175 10.76075,12.16542c0,3.26083 -1.46917,6.235 -3.79833,8.45667c0.03583,-0.25083 -9.52808,-20.89083 -10.535,-20.99833z" fill="#4db6ac"></path><path d="M92.52167,74.03167c-3.01,6.80833 -6.52167,11.96833 -6.52167,11.96833c0,0 -3.51167,-5.16 -6.52167,-11.96833c2.0425,0.78833 4.22833,1.21833 6.52167,1.21833c2.29333,0 4.47917,-0.43 6.52167,-1.21833z" fill="#90caf9"></path><path d="M75.465,60.415c-2.365,-2.18583 -3.79833,-5.19583 -3.79833,-8.45667c0,-6.05583 4.90917,-11.10833 11.43083,-12.29083c0.57333,-0.1075 2.29692,-0.25083 2.9025,-0.25083c-5.41083,0.645 -10.67833,19.95917 -10.535,20.99833z" fill="#8dd0ca"></path><path d="M96.75,57.33333c0,0.50167 0,1.03917 -0.07167,1.54083c0,0.50167 -0.07167,1.03917 -0.14333,1.54083c-2.61583,2.50833 -6.37833,4.085 -10.535,4.085c-4.15667,0 -7.91917,-1.57667 -10.535,-4.085c-0.14333,-1.03917 -0.215,-2.07833 -0.215,-3.08167c0,-11.75333 4.22833,-17.2 9.63917,-17.845c0.35833,-0.07167 0.7525,-0.07167 1.11083,-0.07167c0.35833,0 0.7525,0 1.11083,0.07167c1.00333,0.1075 2.00667,0.39417 2.9025,0.89583c0.28667,0.14333 0.57333,0.3225 0.86,0.50167c0.28667,0.17917 0.57333,0.39417 0.86,0.68083c0.25083,0.215 0.50167,0.43 0.71667,0.68083c0.82417,0.86 1.57667,1.935 2.15,3.26083c0.17917,0.39417 0.35833,0.78833 0.50167,1.1825c0.17917,0.43 0.3225,0.86 0.46583,1.32583c0.14333,0.39417 0.25083,0.82417 0.3225,1.25417c0.14333,0.57333 0.28667,1.14667 0.35833,1.75583c0.14333,0.68083 0.25083,1.43333 0.3225,2.18583c0.1075,1.25417 0.17917,2.65167 0.17917,4.12083z" fill="#80cbc4"></path><path d="M103.845,58.94583c-0.89583,11.78917 -12.86417,23.25583 -16.69833,26.62417c-0.3225,0.28667 -0.71667,0.43 -1.14667,0.43c0,0 3.51167,-5.16 6.52167,-11.96833c6.16333,-2.43667 10.67833,-8.20583 11.32333,-15.08583z" fill="#9fa8da"></path><path d="M86,86c-0.43,0 -0.82417,-0.14333 -1.14667,-0.43c-3.83417,-3.36833 -15.8025,-14.835 -16.69833,-26.62417c0.645,6.88 5.16,12.64917 11.32333,15.08583c3.01,6.80833 6.52167,11.96833 6.52167,11.96833z" fill="#81c784"></path></g></g></g></svg>