<svg xmlns="http://www.w3.org/2000/svg" x="0px" y="0px"
width="14" height="14"
viewBox="0 0 172 172"
style=" fill:#11142D;"><g fill="none" fill-rule="nonzero" stroke="none" stroke-width="1" stroke-linecap="butt" stroke-linejoin="miter" stroke-miterlimit="10" stroke-dasharray="" stroke-dashoffset="0" font-family="none" font-weight="none" font-size="none" text-anchor="none" style="mix-blend-mode: normal"><path d="M0,172v-172h172v172z" fill="none"></path><g fill="#11142D"><path d="M49.2995,51.03383c-8.39933,-8.39217 -8.39933,-22.00883 0,-30.401c8.39217,-8.39933 22.00883,-8.39933 30.401,0l50.16667,50.16667c4.19967,4.19967 6.2995,9.6965 6.2995,15.2005h-51.90817z"></path><path d="M79.7005,151.36717c-4.1925,4.19967 -9.6965,6.2995 -15.2005,6.2995c-5.504,0 -11.008,-2.09983 -15.2005,-6.2995c-8.39933,-8.39217 -8.39933,-22.00883 0,-30.401l34.959,-34.96617h51.90817c0,5.504 -2.09983,11.00083 -6.2995,15.2005z"></path></g></g></svg>