<svg xmlns="http://www.w3.org/2000/svg" x="0px" y="0px"
width="48" height="48"
viewBox="0 0 172 172"
style=" fill:#000000;"><defs><linearGradient x1="135.45" y1="155.40917" x2="135.45" y2="26.58833" gradientUnits="userSpaceOnUse" id="color-1_0OQR1FYCuA9f_gr1"><stop offset="0" stop-color="#29b6f6"></stop><stop offset="1" stop-color="#13b2f6"></stop></linearGradient><linearGradient x1="21.80458" y1="124.70358" x2="124.67492" y2="25.70325" gradientUnits="userSpaceOnUse" id="color-2_0OQR1FYCuA9f_gr2"><stop offset="0.115" stop-color="#0076bb"></stop><stop offset="0.257" stop-color="#0069b0"></stop><stop offset="0.28" stop-color="#0069b0"></stop><stop offset="0.424" stop-color="#0069b0"></stop><stop offset="0.491" stop-color="#0072b7"></stop><stop offset="0.577" stop-color="#0076bb"></stop><stop offset="0.795" stop-color="#0076bb"></stop><stop offset="1" stop-color="#006eb9"></stop></linearGradient></defs><g fill="none" fill-rule="nonzero" stroke="none" stroke-width="1" stroke-linecap="butt" stroke-linejoin="miter" stroke-miterlimit="10" stroke-dasharray="" stroke-dashoffset="0" font-family="none" font-weight="none" font-size="none" text-anchor="none" style="mix-blend-mode: normal"><path d="M0,172v-172h172v172z" fill="none"></path><g><path d="M122.464,15.22558c0.67367,0.32967 20.382,9.73233 30.00683,14.32617c3.17842,1.51575 5.19583,4.71925 5.19583,8.23808v96.24833c0,3.51525 -2.00308,6.71517 -5.17075,8.23808c-9.13033,4.40033 -27.27275,13.1365 -28.48033,13.70983c-0.88867,0.42283 -3.225,1.68058 -5.117,1.68058c-2.4295,0 -4.05992,-1.13233 -5.66167,-2.61583l8.59642,-27.08642v-107.48567l-8.07683,-4.06708c1.72717,-1.68775 4.12083,-2.07833 5.53625,-2.07833c1.29717,0 2.35425,0.4945 3.17125,0.89225z" fill="url(#color-1_0OQR1FYCuA9f_gr1)"></path><path d="M32.25,121.46067l89.58333,-68.16575v-32.40408c0,-4.65475 -5.9555,-6.47867 -8.37425,-4.24267c-2.34708,2.16433 -96.76792,88.12492 -96.76792,88.12492c-3.225,2.97417 -3.04225,8.12342 0.38342,10.86467c0,0 4.74433,4.41467 6.46075,5.64017c2.63733,1.88125 6.10242,2.09625 8.71467,0.18275z" fill="url(#color-2_0OQR1FYCuA9f_gr2)"></path><path d="M32.25,50.53933l89.58333,68.27683v31.42942c0,4.29283 -5.08833,7.85825 -8.59642,4.80525l-96.54575,-87.82392c-3.225,-2.97417 -3.04225,-8.12342 0.38342,-10.86467c0,0 4.74433,-4.41467 6.46075,-5.64017c2.63733,-1.88125 6.10242,-2.09625 8.71467,-0.18275z" fill="#0288d1"></path></g></g></svg>