<svg xmlns="http://www.w3.org/2000/svg" x="0px" y="0px"
width="48" height="48"
viewBox="0 0 172 172"
style=" fill:#000000;"><g fill="none" fill-rule="nonzero" stroke="none" stroke-width="1" stroke-linecap="butt" stroke-linejoin="miter" stroke-miterlimit="10" stroke-dasharray="" stroke-dashoffset="0" font-family="none" font-weight="none" font-size="none" text-anchor="none" style="mix-blend-mode: normal"><path d="M0,172v-172h172v172z" fill="none"></path><g><path d="M118.25,60.91667h35.83333l-68.08333,89.58333z" fill="#ea6c00"></path><path d="M17.91667,60.91667l35.83333,-43v43z" fill="#fdad00"></path><path d="M118.25,17.91667v43h35.83333z" fill="#fdad00"></path><path d="M53.75,60.91667l32.23567,90.11725l32.26433,-90.11725zM53.75,17.91667h32.25l-32.25,43zM86,17.91667l32.25,43v-43z" fill="#fdad00"></path><path d="M118.25,60.91667h-64.5l32.25,-43zM118.25,60.91667l17.91667,-7.16667l17.91667,7.16667l-17.91667,7.16667z" fill="#fdd231"></path><g fill="#ea6c00"><path d="M53.75,60.91667h-35.83333l68.069,90.11725zM53.75,60.91667l32.25,-7.16667l32.25,7.16667l-32.25,7.16667z"></path></g><path d="M17.91667,60.91667l17.91667,-7.16667l17.91667,7.16667l-17.91667,7.16667z" fill="#fdd231"></path></g></g></svg>