<svg xmlns="http://www.w3.org/2000/svg" x="0px" y="0px"
width="18,36" height="18,36"
viewBox="0 0 172 172"
style=" fill:#000000;"><defs><linearGradient x1="100.71137" y1="51.63494" x2="100.71137" y2="75.88425" gradientUnits="userSpaceOnUse" id="color-1_fdrZpEl3v1Kt_gr1"><stop offset="0" stop-color="#ffffff"></stop><stop offset="1" stop-color="#ffffff"></stop></linearGradient><linearGradient x1="53.75" y1="26.20313" x2="53.75" y2="49.67575" gradientUnits="userSpaceOnUse" id="color-2_fdrZpEl3v1Kt_gr2"><stop offset="0" stop-color="#ffffff"></stop><stop offset="1" stop-color="#ffffff"></stop></linearGradient><linearGradient x1="86" y1="16.98231" x2="86" y2="154.45331" gradientUnits="userSpaceOnUse" id="color-3_fdrZpEl3v1Kt_gr3"><stop offset="0" stop-color="#ffffff"></stop><stop offset="1" stop-color="#ffffff"></stop></linearGradient><linearGradient x1="86" y1="16.98231" x2="86" y2="154.45331" gradientUnits="userSpaceOnUse" id="color-4_fdrZpEl3v1Kt_gr4"><stop offset="0" stop-color="#ffffff"></stop><stop offset="1" stop-color="#ffffff"></stop></linearGradient><linearGradient x1="86" y1="16.98231" x2="86" y2="154.45331" gradientUnits="userSpaceOnUse" id="color-5_fdrZpEl3v1Kt_gr5"><stop offset="0" stop-color="#ffffff"></stop><stop offset="1" stop-color="#ffffff"></stop></linearGradient><linearGradient x1="88.54775" y1="16.98231" x2="88.54775" y2="154.45331" gradientUnits="userSpaceOnUse" id="color-6_fdrZpEl3v1Kt_gr6"><stop offset="0" stop-color="#ffffff"></stop><stop offset="1" stop-color="#ffffff"></stop></linearGradient></defs><g fill="none" fill-rule="nonzero" stroke="none" stroke-width="1" stroke-linecap="butt" stroke-linejoin="miter" stroke-miterlimit="10" stroke-dasharray="" stroke-dashoffset="0" font-family="none" font-weight="none" font-size="none" text-anchor="none" style="mix-blend-mode: normal"><path d="M0,172v-172h172v172z" fill="none"></path><g id="Layer_1"><path d="M85.73125,78.20625v-29.83125c7.79375,0 15.31875,3.225 20.9625,8.6c5.64375,5.64375 8.6,13.16875 8.6,20.9625h-29.5625z" fill="url(#color-1_fdrZpEl3v1Kt_gr1)"></path><path d="M43,48.375v-16.125c0,-2.95625 2.41875,-5.375 5.375,-5.375h16.125z" fill="url(#color-2_fdrZpEl3v1Kt_gr2)"></path><path d="M135.71875,40.58125l-20.69375,-20.69375c-2.41875,-2.41875 -5.64375,-3.7625 -9.40625,-3.7625h-59.93125c-7.525,0 -13.4375,5.9125 -13.4375,13.4375v112.875c0,7.525 5.9125,13.4375 13.4375,13.4375h80.625c7.525,0 13.4375,-5.9125 13.4375,-13.4375v-92.18125c0,-3.7625 -1.34375,-6.9875 -4.03125,-9.675zM112.875,25.2625l17.7375,17.7375h-15.05c-1.6125,0 -2.6875,-1.075 -2.6875,-2.6875zM134.375,142.4375c0,4.56875 -3.49375,8.0625 -8.0625,8.0625h-80.625c-4.56875,0 -8.0625,-3.49375 -8.0625,-8.0625v0c2.15,1.6125 5.10625,2.6875 8.0625,2.6875h80.625c2.95625,0 5.9125,-1.075 8.0625,-2.6875zM134.375,131.6875c0,4.56875 -3.49375,8.0625 -8.0625,8.0625h-80.625c-4.56875,0 -8.0625,-3.49375 -8.0625,-8.0625v-102.125c0,-4.56875 3.49375,-8.0625 8.0625,-8.0625h59.93125c0.5375,0 1.075,0 1.88125,0.26875v18.54375c0,4.56875 3.49375,8.0625 8.0625,8.0625h18.54375c0,0.5375 0.26875,1.075 0.26875,1.88125z" fill="url(#color-3_fdrZpEl3v1Kt_gr3)"></path><rect x="18" y="42" transform="scale(2.6875,2.6875)" width="28" height="2" fill="url(#color-4_fdrZpEl3v1Kt_gr4)"></rect><rect x="25.5" y="46" transform="scale(2.6875,2.6875)" width="13" height="2" fill="url(#color-5_fdrZpEl3v1Kt_gr5)"></rect><path d="M85.73125,105.08125c13.975,0 25.53125,-10.75 26.875,-24.45625h2.95625c1.6125,0 2.6875,-1.075 2.6875,-2.6875c0,-8.6 -3.49375,-16.93125 -9.40625,-22.84375c-5.9125,-5.9125 -14.24375,-9.40625 -22.84375,-9.40625c-1.6125,0 -2.6875,1.075 -2.6875,2.6875v2.95625c-13.70625,1.34375 -24.45625,12.9 -24.45625,26.875c0,14.78125 12.09375,26.875 26.875,26.875zM88.41875,51.33125c6.18125,0.5375 12.09375,3.49375 16.39375,7.79375c4.3,4.3 7.25625,10.2125 7.79375,16.39375h-24.1875zM85.73125,80.89375h7.525c-1.075,3.225 -4.03125,5.375 -7.525,5.375c-4.56875,0 -8.0625,-3.7625 -8.0625,-8.0625c0,-3.49375 2.15,-6.45 5.375,-7.525v7.525c0,1.34375 1.34375,2.6875 2.6875,2.6875zM83.04375,56.70625v8.33125c-6.18125,1.34375 -10.75,6.71875 -10.75,13.16875c0,7.525 6.18125,13.4375 13.4375,13.4375c6.45,0 12.09375,-4.56875 13.16875,-10.75h8.33125c-1.34375,10.75 -10.48125,19.08125 -21.5,19.08125c-11.825,0 -21.76875,-9.675 -21.76875,-21.76875c0.26875,-11.01875 8.6,-20.15625 19.08125,-21.5z" fill="url(#color-6_fdrZpEl3v1Kt_gr6)"></path></g></g></svg>