<svg xmlns="http://www.w3.org/2000/svg" x="0px" y="0px"
width="18,36" height="18,36"
viewBox="0 0 172 172"
style=" fill:#000000;"><g fill="none" fill-rule="nonzero" stroke="none" stroke-width="1" stroke-linecap="butt" stroke-linejoin="miter" stroke-miterlimit="10" stroke-dasharray="" stroke-dashoffset="0" font-family="none" font-weight="none" font-size="none" text-anchor="none" style="mix-blend-mode: normal"><path d="M0,172v-172h172v172z" fill="none"></path><g fill="#2E2E2E"><path d="M41.28,6.88c-11.35469,0 -20.64,9.28531 -20.64,20.64v118.39781c0,10.92469 9.74219,19.20219 20.64,19.20219h110.08v-6.88h-110.08c-7.43094,0 -13.76,-5.57656 -13.76,-12.32219c0,-6.74563 6.19469,-11.75781 13.76,-11.75781h110.08v-127.28zM41.28,13.76h103.2v113.52h-103.2c-5.13312,0 -9.9975,1.85438 -13.76,4.87781v-104.63781c0,-7.6325 6.1275,-13.76 13.76,-13.76zM51.6,30.96c-3.7625,0 -6.88,3.1175 -6.88,6.88v13.76c0,3.7625 3.1175,6.88 6.88,6.88h72.24c3.7625,0 6.88,-3.1175 6.88,-6.88v-13.76c0,-3.7625 -3.1175,-6.88 -6.88,-6.88zM51.6,37.84h72.24v13.76h-72.24z"></path></g></g></svg>