<svg xmlns="http://www.w3.org/2000/svg" x="0px" y="0px"
width="24" height="24"
viewBox="0 0 172 172"
style=" fill:#ffffff;"><g fill="none" fill-rule="nonzero" stroke="none" stroke-width="1" stroke-linecap="butt" stroke-linejoin="miter" stroke-miterlimit="10" stroke-dasharray="" stroke-dashoffset="0" font-family="none" font-weight="none" font-size="none" text-anchor="none" style="mix-blend-mode: normal"><path d="M0,172v-172h172v172z" fill="none"></path><g fill="#ffffff"><path d="M35.83333,14.33333c-7.83362,0 -14.33333,6.49972 -14.33333,14.33333v114.66667c0,7.83362 6.49972,14.33333 14.33333,14.33333h49.31282c-3.79833,-3.94167 -7.96452,-8.815 -11.54785,-14.33333h-37.76497v-114.66667h86v44.93164c1.21833,0.35833 2.43667,0.78777 3.58333,1.21777c3.44,-1.36167 7.02333,-2.28549 10.75,-2.71549v-43.43392c0,-7.83362 -6.49972,-14.33333 -14.33333,-14.33333zM108.56381,86c-11.35917,0 -21.88835,6.87418 -26.81901,16.96485c-11.17283,23.01216 12.84558,44.46973 21.97591,52.53223l1.49773,1.37174c6.235,5.68317 20.19824,15.13118 20.19824,15.13118c0,0 13.97007,-9.44802 20.21224,-15.13118l1.48373,-1.37174c9.12317,-8.06967 33.16274,-29.52007 21.98991,-52.53223c-4.93783,-10.09067 -15.567,-16.96485 -26.83301,-16.96485c-7.17383,0 -12.84669,2.29143 -16.85286,4.85709c-4.00617,-2.56567 -9.67903,-4.85709 -16.85286,-4.85709zM108.56381,100.33333c3.36833,0 6.4388,0.86952 9.1263,2.58952l7.72656,4.96908l7.72656,-4.96908c2.6875,-1.72 5.75797,-2.58952 9.1263,-2.58952c5.64017,0 11.37608,3.67101 13.92741,8.88834c5.81933,11.98267 -7.80484,26.01735 -18.7985,35.73535l-1.42774,1.31576c-2.43667,2.22167 -6.64103,5.38564 -10.55403,8.21648c-3.90583,-2.8165 -8.08322,-5.96065 -10.48405,-8.14649l-1.72168,-1.5957c-10.76433,-9.51733 -24.40037,-23.55056 -18.60254,-35.4974c2.61583,-5.332 8.22924,-8.91634 13.95541,-8.91634z"></path></g></g></svg>