<svg xmlns="http://www.w3.org/2000/svg" x="0px" y="0px"
width="44" height="44s"
viewBox="0 0 172 172"
style=" fill:#000000;"><g transform="translate(25.8,25.8) scale(0.7,0.7)"><g fill="none" fill-rule="nonzero" stroke="none" stroke-width="1" stroke-linecap="butt" stroke-linejoin="miter" stroke-miterlimit="10" stroke-dasharray="" stroke-dashoffset="0" font-family="none" font-weight="none" font-size="none" text-anchor="none" style="mix-blend-mode: normal"><path d="M0,172v-172h172v172z" fill="none"></path><g id="original-icon" fill="#000000"><path d="M83.41048,14.39632c-28.9658,1.36432 -51.16048,26.25083 -51.16048,55.05176v26.04216l-9.49723,19.10644c-0.01671,0.03482 -0.03304,0.06981 -0.04899,0.10498c-3.82075,8.12522 2.36418,17.88167 11.34489,17.88167h30.45133c0,11.81018 9.68982,21.5 21.5,21.5c11.81018,0 21.5,-9.68982 21.5,-21.5h30.44434c8.98071,0 15.17358,-9.75445 11.35189,-17.88167c-0.01595,-0.03517 -0.03228,-0.07016 -0.04899,-0.10498l-9.49723,-19.10644v-27.4069c0,-30.48056 -25.57321,-55.13544 -56.33952,-53.68701zM83.91439,25.13232c24.79686,-1.1674 45.08561,18.4489 45.08561,42.95101v28.66667c-0.00075,0.83039 0.1909,1.64966 0.5599,2.39356l10.00814,20.14225c0.64359,1.37942 -0.10106,2.54753 -1.6237,2.54753h-103.89567c-1.52265,0 -2.26126,-1.16611 -1.6167,-2.54753v-0.007l10.00814,-20.13525c0.369,-0.7439 0.56064,-1.56317 0.5599,-2.39356v-27.30192c0,-23.29357 17.84301,-43.22907 40.91439,-44.31575zM75.25,132.58333h21.5c0,5.99898 -4.75102,10.75 -10.75,10.75c-5.99898,0 -10.75,-4.75102 -10.75,-10.75z"></path></g></g></g></svg>