<svg xmlns="http://www.w3.org/2000/svg" x="0px" y="0px"
width="48" height="48"
viewBox="0 0 172 172"
style=" fill:#000000;"><g fill="none" fill-rule="nonzero" stroke="none" stroke-width="1" stroke-linecap="butt" stroke-linejoin="miter" stroke-miterlimit="10" stroke-dasharray="" stroke-dashoffset="0" font-family="none" font-weight="none" font-size="none" text-anchor="none" style="mix-blend-mode: normal"><path d="M0,172v-172h172v172z" fill="none"></path><g fill="#11142d"><path d="M64.36003,35.76335c-1.86189,0.05548 -3.62905,0.83363 -4.92708,2.1696l-43,43c-2.79764,2.7988 -2.79764,7.33531 0,10.13411l43,43c1.79752,1.87223 4.46675,2.62641 6.97825,1.97168c2.5115,-0.65472 4.47282,-2.61605 5.12755,-5.12755c0.65472,-2.5115 -0.09946,-5.18073 -1.97168,-6.97825l-37.93294,-37.93294l37.93294,-37.93294c2.11961,-2.06035 2.75693,-5.21064 1.60486,-7.93287c-1.15207,-2.72223 -3.85719,-4.45797 -6.81189,-4.37084zM107.42302,35.76335c-2.91501,0.00361 -5.53745,1.7723 -6.63303,4.47359c-1.09558,2.70129 -0.44601,5.79702 1.64296,7.83012l37.93294,37.93294l-37.93294,37.93294c-1.87223,1.79752 -2.62641,4.46675 -1.97168,6.97825c0.65472,2.5115 2.61605,4.47282 5.12755,5.12755c2.5115,0.65472 5.18073,-0.09946 6.97825,-1.97168l43,-43c2.79764,-2.7988 2.79764,-7.33531 0,-10.13411l-43,-43c-1.35097,-1.38873 -3.2066,-2.17138 -5.14404,-2.1696z"></path></g></g></svg>